<?xml version="1.0" encoding="UTF-8" standalone="no"?>
<!DOCTYPE svg PUBLIC "-//W3C//DTD SVG 1.1//EN" "http://www.w3.org/Graphics/SVG/1.1/DTD/svg11.dtd">
<svg width="100%" height="100%" viewBox="0 0 200 200" version="1.1" xmlns="http://www.w3.org/2000/svg" xmlns:xlink="http://www.w3.org/1999/xlink" xml:space="preserve" xmlns:serif="http://www.serif.com/" style="fill-rule:evenodd;clip-rule:evenodd;stroke-linejoin:round;stroke-miterlimit:2;">
    <g transform="matrix(0.520806,0,0,0.453084,-6.95068,3.86436)">
        <rect x="51.748" y="35.613" width="76.804" height="88.284" style="fill:rgb(74,220,130);"/>
    </g>
    <g transform="matrix(0.520806,0,0,1.35925,-6.95068,11.5931)">
        <rect x="51.748" y="35.613" width="76.804" height="88.284" style="fill:rgb(70,195,166);"/>
    </g>
    <g transform="matrix(0.520806,0,0,0.453084,33.0493,43.8644)">
        <rect x="51.748" y="35.613" width="76.804" height="88.284" style="fill:rgb(70,195,166);"/>
    </g>
    <g transform="matrix(0.520806,0,0,0.453084,73.0493,83.8644)">
        <rect x="51.748" y="35.613" width="76.804" height="88.284" style="fill:rgb(65,161,208);"/>
    </g>
    <g transform="matrix(0.520806,0,0,0.906168,33.0493,67.7287)">
        <rect x="51.748" y="35.613" width="76.804" height="88.284" style="fill:rgb(65,161,208);"/>
    </g>
    <g transform="matrix(0.520806,0,0,0.453084,113.049,123.864)">
        <rect x="51.748" y="35.613" width="76.804" height="88.284" style="fill:rgb(84,148,241);"/>
    </g>
    <g transform="matrix(0.520806,0,0,0.453084,73.0493,123.864)">
        <rect x="51.748" y="35.613" width="76.804" height="88.284" style="fill:rgb(84,148,241);"/>
    </g>
</svg>
